<?xml version="1.0" encoding="utf-8"?>
<!DOCTYPE svg PUBLIC "-//W3C//DTD SVG 1.1//EN" "http://www.w3.org/Graphics/SVG/1.1/DTD/svg11.dtd">
<svg version="1.1" id="图形" xmlns="http://www.w3.org/2000/svg" xmlns:xlink="http://www.w3.org/1999/xlink" x="0px" y="0px" width="1024px" height="1024px" viewBox="0 0 1024 1024" enable-background="new 0 0 1024 1024" xml:space="preserve">
  <path fill="#272636" d="M150.959487 421.099369q-11.250554-13.29611-20.455553-31.706107-8.182221-15.341665-14.318887-36.819996t-6.136666-49.093327q0-32.728885 5.625277-57.275549t12.784721-40.911106q8.182221-18.409998 19.432775-32.728885 17.38722 11.250554 31.706107 29.660552 11.250554 15.341665 21.478331 39.37694t10.227777 59.832493q0 26.592219-9.716388 49.093327t-20.966942 37.842773q-13.29611 18.409998-29.660552 32.728885zM182.665595 457.919365q19.432775-20.455553 34.77444-46.024995 13.29611-21.478331 24.035275-49.604716t10.739165-59.832493q0-42.956662-12.273332-73.128602t-26.592219-50.627494q-17.38722-23.523886-37.842773-37.842773 22.501108-17.38722 48.07055-29.660552 21.478331-11.250554 48.581939-20.455553t55.741382-9.204999q30.68333 0 57.275549 7.670832t47.047772 17.898609q23.523886 11.250554 41.933884 26.592219-20.455553 15.341665-37.842773 39.888329-14.318887 20.455553-26.592219 52.16166t-12.273332 77.731102q-1.022778 32.728885 11.250554 59.832493t26.592219 47.559161q17.38722 23.523886 38.865551 41.933884-18.409998 16.364442-41.933884 28.637774-20.455553 11.250554-47.047772 19.944164t-57.275549 8.69361q-29.660552 0-55.229993-8.182221t-46.024995-18.409998q-23.523886-11.250554-43.979439-25.569441zM499.726668 420.076591q10.227777-12.273332 19.432775-30.68333 8.182221-15.341665 14.318887-37.331384t6.136666-49.604716q0-32.728885-6.136666-57.275549t-13.29611-40.911106q-8.182221-19.432775-18.409998-32.728885-18.409998 11.250554-31.706107 29.660552-11.250554 15.341665-21.478331 39.37694t-9.204999 59.832493q0 26.592219 9.204999 49.093327t20.455553 37.842773q13.29611 18.409998 30.68333 32.728885zM694.054423 252.341056q-8.182221 58.298326-15.853054 100.743599t-8.69361 78.242491q-1.022778 17.38722-2.045555 59.832493t-2.556944 90.004434-2.556944 91.027211-1.022778 62.900826q1.022778 40.911106 24.035275 59.832493t61.878048 16.875831q35.797218-1.022778 59.832493-17.38722t24.035275-53.184438l0-73.639991q0-41.933884-0.511389-84.379157t-1.022778-80.799435-1.534166-61.878048-3.579722-43.979439-6.136666-42.445273-8.182221-46.536383-8.69361-55.229993l-107.391654 0zM701.213866 203.247728l20.455553-251.603303q-12.273332-3.068333-23.523886-7.159444-9.204999-4.091111-18.921387-9.716388t-14.830276-14.830276-2.045555-20.966942 13.807498-22.501108 29.149163-18.409998 45.002217-7.670832 46.536383 7.670832 31.194719 18.921387 13.807498 24.035275-4.602499 21.98972q-8.182221 9.204999-17.898609 15.341665t-18.921387 9.204999q-11.250554 4.091111-21.478331 5.113888l18.409998 250.580526-96.1411 0z" transform="translate(0, 812) scale(1, -1)"/>
</svg>
